<svg id="svg" version="1.1" xmlns="http://www.w3.org/2000/svg" xmlns:xlink="http://www.w3.org/1999/xlink" width="400" height="300" viewBox="0, 0, 400,300"><g id="svgg"><path id="path0" d="M136.070 99.104 C 135.860 99.649,136.049 187.462,136.260 187.673 C 136.357 187.770,156.304 187.815,180.587 187.773 L 224.738 187.697 202.986 165.941 C 191.023 153.976,181.092 143.940,180.917 143.639 C 180.642 143.163,183.485 140.201,202.453 121.196 C 214.472 109.154,224.351 99.172,224.406 99.013 C 224.571 98.536,136.253 98.627,136.070 99.104 " stroke="none" fill="#1f9ee4" fill-rule="evenodd"></path><path id="path1" d="M0.000 150.038 L 0.000 300.075 200.000 300.075 L 400.000 300.075 400.000 150.038 L 400.000 0.000 200.000 0.000 L 0.000 0.000 0.000 150.038 M225.168 98.637 C 225.285 98.753,215.383 108.848,203.163 121.068 L 180.945 143.287 203.151 165.491 C 215.364 177.704,225.356 187.797,225.356 187.921 C 225.356 188.045,205.236 188.147,180.645 188.147 L 135.934 188.147 135.934 143.286 L 135.934 98.425 180.445 98.425 C 204.926 98.425,225.052 98.520,225.168 98.637 M257.038 187.143 C 256.835 187.673,212.453 143.712,212.453 142.980 C 212.453 142.711,229.119 125.974,249.962 105.312 L 256.714 98.618 256.977 142.618 C 257.121 166.818,257.149 186.854,257.038 187.143 " stroke="none" fill="#fbfcfb" fill-rule="evenodd"></path><path id="path2" d="M250.806 104.542 C 238.310 117.086,231.846 123.694,232.676 123.075 L 233.544 122.427 235.092 124.754 C 235.943 126.034,236.733 127.284,236.848 127.532 C 237.156 128.199,237.742 129.073,238.335 129.748 C 238.623 130.077,238.860 130.508,238.860 130.707 C 238.860 130.906,239.062 131.146,239.310 131.241 C 239.557 131.336,239.760 131.639,239.760 131.913 C 239.760 132.188,239.999 132.631,240.292 132.898 C 240.585 133.165,240.989 133.721,241.190 134.134 C 241.672 135.121,242.192 135.916,242.836 136.649 C 243.125 136.978,243.361 137.362,243.361 137.503 C 243.361 137.728,244.458 139.432,244.862 139.835 C 244.944 139.917,245.204 140.356,245.438 140.810 C 245.671 141.264,245.975 141.635,246.112 141.635 C 246.249 141.635,246.362 141.828,246.362 142.064 C 246.362 142.300,246.538 142.671,246.753 142.889 C 246.969 143.107,247.244 143.488,247.365 143.736 C 247.652 144.323,248.039 144.940,249.747 147.539 C 250.526 148.724,251.163 149.776,251.163 149.878 C 251.163 149.980,251.500 150.428,251.913 150.873 C 252.326 151.318,252.663 151.788,252.663 151.917 C 252.663 152.154,254.366 154.777,255.243 155.889 C 255.975 156.818,256.270 157.770,256.539 160.070 C 256.682 161.300,256.803 148.870,256.825 130.458 C 256.847 113.005,256.805 98.725,256.732 98.725 C 256.659 98.725,253.992 101.342,250.806 104.542 " stroke="none" fill="#9dee6e" fill-rule="evenodd"></path><path id="path3" d="M232.676 123.078 C 231.303 124.109,212.753 142.639,212.753 142.980 C 212.753 143.345,256.302 186.947,256.666 186.947 C 257.056 186.947,256.704 159.739,256.293 158.140 C 256.102 157.397,255.680 156.452,255.356 156.039 C 254.381 154.799,252.663 152.169,252.663 151.917 C 252.663 151.788,252.326 151.318,251.913 150.873 C 251.500 150.428,251.163 149.980,251.163 149.878 C 251.163 149.776,250.526 148.724,249.747 147.539 C 248.039 144.940,247.652 144.323,247.365 143.736 C 247.244 143.488,246.969 143.107,246.753 142.889 C 246.538 142.671,246.362 142.300,246.362 142.064 C 246.362 141.828,246.249 141.635,246.112 141.635 C 245.975 141.635,245.671 141.264,245.438 140.810 C 245.204 140.356,244.944 139.917,244.862 139.835 C 244.458 139.432,243.361 137.728,243.361 137.503 C 243.361 137.362,243.125 136.978,242.836 136.649 C 242.192 135.916,241.672 135.121,241.190 134.134 C 240.989 133.721,240.585 133.165,240.292 132.898 C 239.999 132.631,239.760 132.188,239.760 131.913 C 239.760 131.639,239.557 131.336,239.310 131.241 C 239.062 131.146,238.860 130.906,238.860 130.707 C 238.860 130.508,238.617 130.084,238.319 129.764 C 238.022 129.444,237.686 128.980,237.571 128.732 C 237.457 128.485,237.194 128.022,236.986 127.704 C 236.779 127.386,235.920 126.068,235.077 124.776 L 233.544 122.427 232.676 123.078 " stroke="none" fill="#66e58e" fill-rule="evenodd"></path><path id="path4" d="M135.934 98.650 C 135.934 98.773,155.863 98.840,180.221 98.798 C 208.677 98.748,224.471 98.825,224.407 99.011 C 224.351 99.171,214.482 109.144,202.476 121.174 C 190.469 133.204,180.645 143.151,180.645 143.280 C 180.645 143.409,190.536 153.430,202.626 165.549 C 214.715 177.668,224.662 187.643,224.731 187.715 C 224.800 187.788,204.925 187.847,180.565 187.847 L 136.274 187.847 136.149 187.022 C 136.033 186.254,136.021 186.264,135.979 187.172 L 135.934 188.147 180.645 188.147 C 205.236 188.147,225.356 188.045,225.356 187.921 C 225.356 187.797,215.364 177.704,203.151 165.491 L 180.945 143.287 203.163 121.068 C 215.383 108.848,225.285 98.753,225.168 98.637 C 224.883 98.351,135.934 98.364,135.934 98.650 M228.059 127.076 C 219.561 135.571,212.556 142.677,212.493 142.866 C 212.354 143.284,256.577 187.574,256.921 187.362 C 257.055 187.279,257.131 177.193,257.091 164.949 L 257.018 142.686 256.939 164.816 C 256.896 176.988,256.760 186.947,256.636 186.947 C 256.295 186.947,212.753 143.328,212.753 142.986 C 212.753 142.822,219.741 135.699,228.281 127.158 C 236.821 118.616,243.742 111.628,243.660 111.628 C 243.578 111.629,236.558 118.580,228.059 127.076 " stroke="none" fill="#a0dee7" fill-rule="evenodd"></path></g></svg>