<?xml version="1.0" standalone="no"?>
<!DOCTYPE svg PUBLIC "-//W3C//DTD SVG 20010904//EN"
 "http://www.w3.org/TR/2001/REC-SVG-20010904/DTD/svg10.dtd">
<svg version="1.0" xmlns="http://www.w3.org/2000/svg"
 width="1360.000000pt" height="815.000000pt" viewBox="0 0 1360.000000 815.000000"
 preserveAspectRatio="xMidYMid meet">

<g transform="translate(0.000000,815.000000) scale(0.100000,-0.100000)"
fill="#000000" stroke="none">
<path d="M399 7023 c-44 -4 -47 -6 -50 -36 -2 -18 -3 -1372 -1 -3009 l2 -2978
730 0 730 0 0 55 0 55 -623 2 -622 3 -3 2898 -2 2897 625 0 625 0 0 54 0 53
-77 7 c-78 6 -1250 5 -1334 -1z"/>
<path d="M11780 6965 l0 -55 623 -2 622 -3 3 -2897 2 -2898 -622 -2 -623 -3 0
-55 0 -55 718 -3 c678 -2 717 -1 717 15 0 10 1 1367 3 3016 l2 2997 -722 0
-723 0 0 -55z"/>
<path d="M10498 5300 c-94 -28 -143 -101 -142 -211 1 -95 30 -145 106 -183 50
-25 69 -28 145 -29 106 0 162 14 207 53 48 43 66 87 66 162 -1 151 -86 219
-274 217 -45 0 -93 -4 -108 -9z"/>
<path d="M1475 5170 c-97 -13 -233 -54 -313 -94 -280 -143 -422 -434 -422
-861 0 -410 147 -705 422 -848 256 -132 662 -142 924 -22 267 122 412 344 455
695 14 114 6 363 -15 467 -21 102 -68 233 -107 300 -105 176 -294 304 -514
349 -87 18 -337 26 -430 14z m251 -411 c194 -35 294 -217 294 -533 -1 -247
-58 -413 -167 -486 -64 -42 -114 -55 -208 -54 -189 1 -294 89 -351 294 -26 93
-26 396 -1 489 37 131 96 215 180 257 81 42 154 51 253 33z"/>
<path d="M6710 5166 c-112 -17 -170 -35 -265 -84 -172 -89 -265 -248 -265
-448 1 -177 51 -297 172 -409 65 -60 98 -79 303 -180 127 -62 245 -125 263
-140 84 -71 52 -186 -62 -220 -123 -37 -384 7 -600 101 -44 19 -82 30 -85 25
-3 -5 -5 -106 -3 -224 l3 -215 93 -35 c142 -55 242 -70 451 -71 206 -1 302 17
430 79 200 97 310 260 322 480 9 170 -41 301 -157 408 -71 65 -152 112 -365
212 -209 98 -265 143 -265 213 0 16 9 41 21 56 35 45 69 56 172 56 106 0 230
-27 357 -79 41 -17 78 -31 81 -31 9 0 161 381 155 387 -14 14 -241 86 -328
103 -131 27 -306 33 -428 16z"/>
<path d="M3651 4750 c-112 -17 -209 -68 -281 -147 -28 -30 -56 -53 -63 -50 -6
2 -25 43 -42 91 l-30 86 -187 0 -188 0 0 -720 0 -720 249 0 250 0 3 423 c4
402 5 425 26 488 25 74 74 132 129 150 19 6 62 9 94 7 48 -3 65 -10 89 -33 63
-60 64 -72 68 -577 l3 -458 249 0 250 0 0 498 c-1 528 -6 599 -49 698 -52 117
-145 202 -268 243 -70 23 -221 34 -302 21z"/>
<path d="M5125 4750 c-378 -59 -574 -313 -575 -743 0 -391 165 -625 509 -720
64 -17 104 -20 261 -21 212 0 318 16 445 67 l80 32 3 178 c1 97 -1 177 -5 177
-5 0 -39 -13 -78 -29 -116 -47 -191 -62 -335 -68 -107 -4 -147 -2 -191 10 -97
29 -177 118 -182 205 l-2 37 440 2 440 1 0 184 c-1 206 -11 264 -70 384 -67
138 -220 250 -393 288 -90 20 -266 28 -347 16z m205 -341 c82 -19 138 -84 154
-181 l7 -38 -217 0 -216 0 7 38 c16 91 63 149 144 178 44 16 63 16 121 3z"/>
<path d="M8265 4746 c-242 -38 -421 -159 -512 -347 -66 -134 -78 -196 -78
-399 0 -202 12 -263 77 -400 75 -155 209 -262 397 -312 61 -16 106 -20 231
-20 180 0 265 17 390 79 l75 38 3 198 c1 110 -1 197 -5 195 -5 -1 -42 -20 -83
-40 -139 -68 -336 -98 -425 -64 -106 41 -158 151 -157 336 0 140 25 224 86
285 56 56 97 68 205 63 77 -4 170 -29 271 -72 14 -5 56 89 158 354 4 10 -131
65 -208 84 -72 17 -231 36 -300 35 -25 -1 -81 -7 -125 -13z"/>
<path d="M9940 4750 c-81 -17 -182 -75 -241 -137 -30 -32 -63 -72 -75 -88 -11
-16 -25 -26 -31 -22 -6 4 -21 38 -33 75 -12 37 -29 86 -37 110 l-16 42 -183 0
-184 0 0 -720 0 -720 250 0 249 0 3 408 c3 378 4 410 22 446 56 113 172 156
367 138 l86 -8 22 230 c12 126 18 232 14 237 -13 12 -164 19 -213 9z"/>
<path d="M12003 4750 c-118 -22 -227 -80 -291 -156 -20 -24 -42 -44 -48 -44
-7 0 -18 17 -25 38 -6 20 -20 61 -31 90 l-19 52 -190 0 -189 0 0 -720 0 -720
250 0 250 0 0 359 c0 462 14 569 83 648 41 46 82 63 154 63 90 0 133 -36 159
-133 11 -40 14 -151 14 -494 l0 -443 250 0 251 0 -3 548 c-3 538 -4 548 -26
606 -32 86 -64 136 -120 188 -56 52 -102 78 -182 102 -67 20 -217 28 -287 16z"/>
<path d="M10370 4010 l0 -720 245 0 245 0 0 720 0 720 -245 0 -245 0 0 -720z"/>
</g>
</svg>
